<svg xmlns="http://www.w3.org/2000/svg" width="232.411" height="176.462" viewBox="0 0 232.411 176.462"><defs><style>.a{fill:#e6e6e6;}.b{fill:#fff;}.c{fill:#098dcd;}.d{fill:#2f2e41;}.e{fill:#ffb8b8;}.f{fill:#3f3d56;}.g{opacity:0.3;}</style></defs><rect class="a" width="187.12" height="119.84" transform="translate(0.08 0.106)"/><rect class="b" width="176.418" height="97.719" transform="translate(5.431 15.137)"/><rect class="c" width="187.12" height="7.95"/><circle class="b" cx="1.473" cy="1.473" r="1.473" transform="translate(4.434 2.591)"/><circle class="b" cx="1.473" cy="1.473" r="1.473" transform="translate(10.027 2.591)"/><circle class="b" cx="1.473" cy="1.473" r="1.473" transform="translate(15.619 2.591)"/><rect class="a" width="45.331" height="77.441" transform="translate(21.461 25.276)"/><rect class="c" width="37.776" height="21.316" transform="translate(74.617 25.276)"/><rect class="a" width="37.776" height="22.935" transform="translate(74.617 52.529)"/><rect class="a" width="37.776" height="21.316" transform="translate(74.617 81.401)"/><rect class="a" width="45.331" height="33.748" transform="translate(120.488 25.276)"/><rect class="c" width="45.331" height="33.748" transform="translate(120.488 68.969)"/><path class="d" d="M880.467,340.019c-2.99-5.1-8.906-5.334-8.906-5.334s-5.765-.744-9.463,7.018c-3.447,7.234-8.2,14.219-.766,15.913l1.344-4.218.832,4.532a28.857,28.857,0,0,0,3.182.055c7.966-.259,15.552.076,15.307-2.807C881.673,351.345,883.344,344.923,880.467,340.019Z" transform="translate(-666.384 -279.954)"/><path class="e" d="M788.089,446.712l-2.616,6.684L772.4,465.6s-7.847,5.812-4.359,7.556,6.684-6.394,6.684-6.394l13.95-8.428,2.906-9.591Z" transform="translate(-602.362 -359.437)"/><path class="e" d="M654.068,552.469l2.616,6.684h3.778l-3.2-7.847Z" transform="translate(-463.982 -391.085)"/><path class="e" d="M693.068,562.468l2.616,6.684h3.778l-3.2-7.847Z" transform="translate(-491.648 -398.179)"/><path class="d" d="M840.405,551.175l4.941-1.162-6.394-25.865,2.123-19.9.057-.006s3.633-14.1.727-17.873-17.437-2.325-17.437-2.325-5.522,5.522-5.231,18.018,0,23.25,2.034,28.19,7.847,18.019,7.847,18.019l4.65-.581-4.941-21.506-.79-18.695c.629,7.492,1.894,21.7,2.534,22.764C831.4,531.7,840.405,551.175,840.405,551.175Z" transform="translate(-639.276 -385.723)"/><path class="e" d="M930.448,467.712l2.034,7.266,9.009,16.275s7.847,6.975,4.65,7.847S938,492.705,938,492.705l-10.172-14.24L925.217,468Z" transform="translate(-714.497 -374.334)"/><circle class="e" cx="7.266" cy="7.266" r="7.266" transform="translate(198.223 58.213)"/><path class="e" d="M882.867,384.712l-1.744,5.522-2.906,6.394,10.753-4.359s-.581-4.65,0-5.812Z" transform="translate(-681.156 -315.455)"/><path class="c" d="M863.442,407.527,856.757,402l-7.556,3.2.3-4.716-8.062,2.575-1.243.4-1.744,9.009s-1.162.872-2.325,5.812a42.578,42.578,0,0,1-2.906,8.428s12.5-4.941,18.6,1.744A1.357,1.357,0,0,0,852.4,427c-.291-.872,2.616-5.231,2.616-5.231s0,.872,1.163-.872,2.034-2.034,2.034-2.034Z" transform="translate(-649.234 -326.645)"/><path class="c" d="M842.645,411.069l-1.269-1.023s-1.056-.43-1.927,1.023-5.231,10.462-5.231,10.462l5.231,2.616Z" transform="translate(-649.943 -333.385)"/><path class="c" d="M918.251,423.712l4.069.291s2.325,1.163,2.325,2.906.581,11.044.581,11.044l-6.394,2.034-2.616-8.137Z" transform="translate(-708.112 -343.121)"/><path class="d" d="M835.991,721.212l-4.941,2.034s-5.812.291-4.94,3.2,9.591.872,9.591.872,7.847.291,7.847-1.744-1.162-4.359-2.325-4.359Z" transform="translate(-644.129 -554.161)"/><path class="d" d="M873.991,730.212l-4.941,2.034s-5.812.291-4.94,3.2,9.591.872,9.591.872,7.847.291,7.847-1.744-1.162-4.359-2.325-4.359Z" transform="translate(-671.085 -560.546)"/><path class="d" d="M694.047,197.451l-5.845-3.088-8.071,1.263-1.67,7.439,4.157-.161,1.161-2.733v2.688l1.918-.074,1.113-4.351.7,4.632,6.819-.14Z" transform="translate(-481.287 -137.877)"/><path class="f" d="M640.178,207.373a39.24,39.24,0,1,0,2.225,57.951l48.132,40.613a3.616,3.616,0,1,0,4.664-5.527L647.067,259.8a39.242,39.242,0,0,0-6.889-52.423Zm-3.1,48.512a29.4,29.4,0,1,1-3.51-41.427,29.4,29.4,0,0,1,3.51,41.427Z" transform="translate(-466.509 -183.093)"/><path class="g" d="M611.431,312.489a29.4,29.4,0,0,1-4.989-39.521q-.843.849-1.63,1.779a29.4,29.4,0,1,0,44.937,37.918q.785-.931,1.479-1.906A29.4,29.4,0,0,1,611.431,312.489Z" transform="translate(-482.291 -236.186)"/></svg>