<svg xmlns="http://www.w3.org/2000/svg" xmlns:xlink="http://www.w3.org/1999/xlink" width="231.243" height="161.24" viewBox="0 0 231.243 161.24"><defs><style>.a,.b{fill:#098dcd;}.a,.e,.g,.l{opacity:0.1;}.c,.g{fill:#444053;}.d{fill:#3f3d56;}.f{fill:#fff;}.h{fill:url(#a);}.i{fill:#a1616a;}.j{opacity:0.15;}.k{fill:#fbbebe;}.m{fill:#3acc6c;}</style><linearGradient id="a" x1="0.5" y1="1" x2="0.5" gradientUnits="objectBoundingBox"><stop offset="0" stop-color="gray" stop-opacity="0.251"/><stop offset="0.54" stop-color="gray" stop-opacity="0.122"/><stop offset="1" stop-color="gray" stop-opacity="0.102"/></linearGradient></defs><g transform="translate(0 0.005)"><path class="a" d="M170.482,82.135c-14.819-.514-28.934-5.3-42.413-10.534s-26.829-11.034-41.3-13.807c-9.3-1.785-19.943-2.037-27.44,2.951-7.214,4.8-9.544,13.086-10.8,20.775-.943,5.786-1.5,11.872,1.086,17.289,1.793,3.759,4.978,6.919,7.173,10.52,7.663,12.532,2.254,27.983-6.058,40.22-3.894,5.738-8.415,11.215-11.419,17.324s-4.39,13.11-1.748,19.353c2.607,6.177,8.813,10.817,15.549,14.082,13.657,6.618,29.764,8.515,45.469,9.589,34.767,2.377,69.72,1.349,104.579.318,12.9-.383,25.858-.769,38.548-2.765,7.048-1.107,14.324-2.869,19.441-7.11,6.495-5.388,8.105-14.512,3.753-21.269-7.3-11.333-27.485-14.141-32.586-26.311-2.81-6.693.076-14.151,4.158-20.359,8.755-13.321,23.431-25,24.2-40.228.533-10.452-6.523-20.929-17.433-25.876-11.436-5.185-27.29-4.533-35.728,4.052C198.833,79.188,183.567,82.588,170.482,82.135Z" transform="translate(-36.1 -56.63)"/><path class="b" d="M925.664,737.35a6.317,6.317,0,0,0-2.58-.275.83.83,0,0,0,.154,1.652,7.627,7.627,0,0,0,1.57-.289Z" transform="translate(-740.673 -597.601)"/><path class="b" d="M936.013,738.61a6.305,6.305,0,0,1,.631,2.519.83.83,0,0,1-1.658.078,7.707,7.707,0,0,1,.07-1.594Z" transform="translate(-750.701 -598.847)"/><path class="b" d="M933.4,717.342s-.519-1.627-3.689-1a1.3,1.3,0,0,0,.041,2.56h.061A3.224,3.224,0,0,0,933.4,717.342Z" transform="translate(-745.678 -581.03)"/><path class="b" d="M949.358,721.3s1.7.133,1.81,3.361a1.3,1.3,0,0,1-2.5.545.177.177,0,0,0-.022-.059A3.233,3.233,0,0,1,949.358,721.3Z" transform="translate(-761.306 -585.084)"/><path class="b" d="M946.742,690.733a3.388,3.388,0,0,0-2.287-2.554,1.778,1.778,0,0,0-1.183,3.349,6.7,6.7,0,0,0,2.713.393Z" transform="translate(-756.415 -558.678)"/><path class="b" d="M956.693,665.167a4.454,4.454,0,0,0-3.115-2.459,1.9,1.9,0,0,0-.75,3.716,7.86,7.86,0,0,0,3.209.027Z" transform="translate(-763.749 -538.471)"/><path class="b" d="M964.782,640.225a5.086,5.086,0,0,0-3.279-2.254,1.647,1.647,0,0,0-.728,3.207,7.653,7.653,0,0,0,3.841-.053Z" transform="translate(-770.258 -518.806)"/><path class="b" d="M972.851,614.827a5.288,5.288,0,0,0-2.869-2.281,1.659,1.659,0,0,0-1.025,3.154,5.834,5.834,0,0,0,3.718-.014Z" transform="translate(-776.837 -498.552)"/><path class="b" d="M975.633,588.7a7.118,7.118,0,0,0-2.49-2.939,1.715,1.715,0,0,0-1.844,2.888,5.192,5.192,0,0,0,4.164.949Z" transform="translate(-778.992 -477.108)"/><path class="b" d="M976.589,562.019a6.971,6.971,0,0,0-2.638-2.869,1.766,1.766,0,0,0-1.8,3.029,4.533,4.533,0,0,0,4.271.691Z" transform="translate(-779.638 -455.991)"/><path class="b" d="M977.66,537.15a12.574,12.574,0,0,0-2.459-2.8,1.37,1.37,0,0,0-1.789,2.072,6.142,6.142,0,0,0,4.191,1.929Z" transform="translate(-780.902 -436.193)"/><path class="b" d="M975.025,510.3a18.425,18.425,0,0,0-2.779-3.591,1.152,1.152,0,0,0-1.64,1.617,10.665,10.665,0,0,0,4.548,3.062Z" transform="translate(-778.781 -414.203)"/><path class="b" d="M972.231,485.6a16.426,16.426,0,0,0-2.22-2.748,1.158,1.158,0,0,0-1.656,1.617,8.472,8.472,0,0,0,4.154,2.611Z" transform="translate(-776.982 -395.233)"/><path class="b" d="M969.568,460.542a26.2,26.2,0,0,0-2.134-2.535.959.959,0,0,0-1.418,1.289,5.873,5.873,0,0,0,3.566,2.22Z" transform="translate(-775.188 -375.511)"/><path class="b" d="M966.028,432.952a26.713,26.713,0,0,0-2.049-3.371.839.839,0,0,0-1.373.963,7.47,7.47,0,0,0,3.332,2.916Z" transform="translate(-772.549 -352.872)"/><path class="b" d="M965.244,406.625s-.506-.859-1.23-1.857a.88.88,0,0,0-1.459.984,4.414,4.414,0,0,0,2.586,2.158Z" transform="translate(-772.509 -333.127)"/><path class="b" d="M966.861,379.448l-.641-3.207a.675.675,0,0,0-1.332.2,7.239,7.239,0,0,0,2.1,4.568Z" transform="translate(-774.48 -310.31)"/><path class="b" d="M971.71,348.027h0a.629.629,0,0,0-1.2.344,16.245,16.245,0,0,0,.648,2.623Z" transform="translate(-778.948 -288.005)"/><path class="b" d="M962.66,700.027a3.388,3.388,0,0,1,3.353.721,1.78,1.78,0,0,1-2.326,2.687A6.738,6.738,0,0,1,962,701.274Z" transform="translate(-772.189 -568.036)"/><path class="b" d="M975.488,673.577a4.449,4.449,0,0,1,3.824,1.041,1.9,1.9,0,0,1-2.539,2.816,7.846,7.846,0,0,1-1.933-2.564Z" transform="translate(-782.398 -547.076)"/><path class="b" d="M985.022,647.171a5.089,5.089,0,0,1,3.894-.865,1.646,1.646,0,0,1-.525,3.246,7.667,7.667,0,0,1-3.541-1.486Z" transform="translate(-790.356 -525.391)"/><path class="b" d="M992.126,620.036a5.284,5.284,0,0,1,3.509-1.047,1.659,1.659,0,0,1-.232,3.308,5.823,5.823,0,0,1-3.443-1.4Z" transform="translate(-796.009 -503.732)"/><path class="b" d="M995.2,591.677a7.136,7.136,0,0,1,2.953-2.472,1.716,1.716,0,0,1,1.351,3.15,5.2,5.2,0,0,1-4.285.236Z" transform="translate(-798.585 -479.956)"/><path class="b" d="M995.55,563.443a6.945,6.945,0,0,1,2.988-2.492,1.766,1.766,0,0,1,1.389,3.238,4.532,4.532,0,0,1-4.324.127Z" transform="translate(-798.864 -457.5)"/><path class="b" d="M993.67,534.308a12.568,12.568,0,0,1,1.8-3.259,1.369,1.369,0,0,1,2.191,1.64,6.112,6.112,0,0,1-3.689,2.781Z" transform="translate(-797.369 -433.404)"/><path class="b" d="M992.9,506.821a18.347,18.347,0,0,1,1.664-4.234,1.149,1.149,0,0,1,2.017,1.1,10.623,10.623,0,0,1-3.513,4.212Z" transform="translate(-796.757 -410.737)"/><path class="b" d="M987.1,481.77a16.437,16.437,0,0,1,1.693-3.232,1.155,1.155,0,0,1,1.943,1.246,8.511,8.511,0,0,1-3.613,3.484Z" transform="translate(-792.145 -391.667)"/><path class="b" d="M982.48,456.553a26.335,26.335,0,0,1,.887-3.191.959.959,0,0,1,1.826.582,5.885,5.885,0,0,1-2.32,3.5Z" transform="translate(-788.472 -371.551)"/><path class="b" d="M979.27,430.381a26.616,26.616,0,0,1,1.23-3.753.84.84,0,0,1,1.558.625,7.468,7.468,0,0,1-2.578,3.6Z" transform="translate(-785.92 -350.398)"/><path class="b" d="M974.46,406.643s.193-.978.543-2.16a.88.88,0,0,1,1.7.443,4.415,4.415,0,0,1-1.721,2.9Z" transform="translate(-782.096 -332.693)"/><path class="b" d="M974.173,379.268l1.115-3.074a.675.675,0,0,1,1.285.41,7.19,7.19,0,0,1-2.763,4.2Z" transform="translate(-781.579 -310.347)"/><path class="b" d="M975.181,349.177s.174-.139.441-.359a.553.553,0,0,1,.74.82,10.455,10.455,0,0,1-3.031,1.922Z" transform="translate(-781.197 -288.833)"/><path class="b" d="M981.117,324.7a40.363,40.363,0,0,1,2.224-3.96.41.41,0,0,0-.664-.469,11.891,11.891,0,0,0-1.787,4.142Z" transform="translate(-787.208 -266.142)"/><path class="c" d="M973.679,356.574l.238-.025c-1.025-9.552-.592-15.443,1.2-16.584l-.129-.2C973.089,340.975,972.638,346.788,973.679,356.574Z" transform="translate(-781.04 -281.739)"/><path class="c" d="M979.047,441.666l.355-.053c-.133-.883-.287-1.781-.459-2.664-1.492-7.753-2.652-14.92-3.232-20.363l-.26-.2c.582,5.454,1.64,12.868,3.142,20.632C978.76,439.889,978.914,440.784,979.047,441.666Z" transform="translate(-782.883 -344.246)"/><path class="c" d="M910.879,577.323a46.507,46.507,0,0,0,10.307-12.231,51.648,51.648,0,0,0,6.066-15.123,60.367,60.367,0,0,0,.465-21.689l-.32.256c2.459,16.309-2.232,28.973-6.609,36.294a45.935,45.935,0,0,1-10.2,12.112Z" transform="translate(-731.316 -431.623)"/><ellipse class="b" cx="13.639" cy="2.623" rx="13.639" ry="2.623" transform="translate(26.124 140.417)"/><ellipse class="d" cx="1.588" cy="2.078" rx="1.588" ry="2.078" transform="translate(37.945 139.847)"/><ellipse class="d" cx="1.588" cy="2.078" rx="1.588" ry="2.078" transform="translate(37.945 137.306)"/><ellipse class="d" cx="1.588" cy="2.078" rx="1.588" ry="2.078" transform="translate(37.945 134.767)"/><ellipse class="d" cx="1.588" cy="2.078" rx="1.588" ry="2.078" transform="translate(37.945 132.225)"/><ellipse class="d" cx="1.588" cy="2.078" rx="1.588" ry="2.078" transform="translate(37.945 129.684)"/><ellipse class="d" cx="1.588" cy="2.078" rx="1.588" ry="2.078" transform="translate(37.945 127.145)"/><ellipse class="d" cx="1.588" cy="2.078" rx="1.588" ry="2.078" transform="translate(37.945 124.604)"/><path class="b" d="M204.993,542.157a7.484,7.484,0,0,0,.592-.871l-4.173-.685,4.509.033a7.611,7.611,0,0,0,.146-6.025l-6.054,3.14,5.583-4.1a7.608,7.608,0,1,0-12.563,8.511,7.684,7.684,0,0,0-.867,1.387l5.417,2.814-5.771-1.939a7.61,7.61,0,0,0,1.23,7.142,7.608,7.608,0,1,0,11.956,0,7.6,7.6,0,0,0,0-9.4Z" transform="translate(-159.516 -432.863)"/><path class="e" d="M191.452,612.454a7.583,7.583,0,0,0,1.627,4.7,7.607,7.607,0,1,0,11.956,0C206.056,615.863,191.452,611.6,191.452,612.454Z" transform="translate(-159.558 -498.457)"/><path class="f" d="M267.81,317.87V408.4a3.16,3.16,0,0,0,3.16,3.16H400.878a3.16,3.16,0,0,0,3.16-3.16V317.87Z" transform="translate(-220.269 -264.335)"/><rect class="e" width="32.566" height="19.115" rx="8.65" transform="translate(58.321 61.639)"/><rect class="e" width="32.566" height="19.115" rx="8.65" transform="translate(99.373 61.639)"/><rect class="b" width="31.649" height="18.576" rx="8.65" transform="translate(58.778 61.907)"/><rect class="g" width="31.649" height="18.576" rx="8.65" transform="translate(172.532 80.483) rotate(180)"/><rect class="b" width="31.649" height="18.576" rx="8.65" transform="translate(131.48 80.483) rotate(180)"/><rect class="g" width="31.649" height="18.576" rx="8.65" transform="translate(58.778 88.74)"/><rect class="g" width="31.649" height="18.576" rx="8.65" transform="translate(172.532 107.317) rotate(180)"/><rect class="g" width="31.649" height="18.576" rx="8.65" transform="translate(131.48 107.317) rotate(180)"/><rect class="g" width="31.649" height="18.576" rx="8.65" transform="translate(58.778 115.574)"/><rect class="g" width="31.649" height="18.576" rx="8.65" transform="translate(172.532 134.152) rotate(180)"/><rect class="g" width="31.649" height="18.576" rx="8.65" transform="translate(131.48 134.152) rotate(180)"/><path class="b" d="M267.81,227.592v16.447H404.038V227.592a3.16,3.16,0,0,0-3.16-3.162H270.97a3.16,3.16,0,0,0-3.16,3.162Zm33.713,4.865a2.523,2.523,0,1,1,2.523-2.523,2.523,2.523,0,0,1-2.523,2.523Zm68.8,0a2.523,2.523,0,1,1,1.783-.737,2.523,2.523,0,0,1-1.783.737Z" transform="translate(-220.269 -190.045)"/><path class="e" d="M420.734,236.74a2.982,2.982,0,1,0,2.98,2.981,2.982,2.982,0,0,0-2.98-2.981Zm0,5.5a2.523,2.523,0,1,1,2.523-2.523A2.523,2.523,0,0,1,420.734,242.245Z" transform="translate(-339.48 -199.832)"/><path class="e" d="M756.432,236.74a2.982,2.982,0,1,0,2.982,2.982A2.982,2.982,0,0,0,756.432,236.74Zm0,5.5a2.523,2.523,0,1,1,2.523-2.523A2.523,2.523,0,0,1,756.432,242.245Z" transform="translate(-606.38 -199.832)"/><circle class="a" cx="3.129" cy="3.129" r="3.129" transform="translate(208.598 82.93)"/><circle class="a" cx="5.247" cy="5.247" r="5.247" transform="translate(217.677 66.857)"/><circle class="a" cx="5.247" cy="5.247" r="5.247" transform="translate(210.731 92.315)"/><circle class="a" cx="7.429" cy="7.429" r="7.429" transform="translate(0 63.387)"/><path class="h" d="M819.1,480.488a6.559,6.559,0,0,0-1.521-.855.314.314,0,0,0-.133-.035,23.4,23.4,0,0,1-3.136-2.7c.2-.164.393-.324.594-.482-1.23-.586-1.912-1.928-2.576-3.14a30.974,30.974,0,0,0-6.833-8.513c-.068-.26-.463-.2-.674-.373a.541.541,0,0,1-.15-.523c.033-.189.119-.363.166-.547a3.692,3.692,0,0,0-.035-1.332,1.632,1.632,0,0,1,.266-1.273c.094-.109.215-.193.307-.3a1.156,1.156,0,0,0,.2-.92,3.263,3.263,0,0,0-.2-.932q1.506-4.1,3.011-8.212a19.37,19.37,0,0,0,1.484-5.911,7.064,7.064,0,0,0-1.357-4.595c.18-.043.361-.088.539-.139-1.172-1.553-1.3-3.611-1.33-5.568q-.025-1.463-.1-2.929c.34.15.685.283,1.037.4l.328.1a11.306,11.306,0,0,0,1.625.348c.242.035.488.061.732.078h0q-.529-1.324-1.055-2.652a3.624,3.624,0,0,1-.328-1.244h0v-.082a.719.719,0,0,1,.01-.148,1.625,1.625,0,0,1,.08-.344,1.551,1.551,0,0,1,.063-.162,2.862,2.862,0,0,1,.262-.461c.074-.113.156-.221.238-.332a4.53,4.53,0,0,0,.736-1.191,2.256,2.256,0,0,0,.113-.678,3.341,3.341,0,0,0-.062-.7c-.029-.152-.066-.305-.107-.453h0c-.027-.092-.055-.184-.084-.275l-.025-.074c-.023-.07-.045-.137-.07-.2l-.025-.07c-.027-.074-.053-.145-.082-.219l-.016-.043c-.391-1.006-.912-1.965-1.23-3a7.94,7.94,0,0,1-.2-.838c-.014-.072-.025-.146-.037-.217s-.018-.123-.027-.184-.018-.143-.027-.215l-.018-.2c0-.066-.01-.131-.014-.2,0-.125-.012-.25-.014-.375v-.57c0-.094.014-.189.023-.281a.416.416,0,0,1,.014-.133q.021-.2.055-.41h0c.02-.121.043-.244.068-.367a4.891,4.891,0,0,0,.115-1.025,1.016,1.016,0,0,0-.014-.2c-.014-.072-.016-.111-.027-.164a.39.39,0,0,1,0-.049.545.545,0,0,0-.027-.111.2.2,0,0,0-.016-.051c-.006-.016-.023-.072-.035-.107s-.01-.031-.016-.047-.029-.074-.045-.109l-.014-.037c-.021-.045-.043-.088-.065-.131h0a3.033,3.033,0,0,0-.275-.426h0c-.674-.885-1.8-1.56-2.412-2.535a5.643,5.643,0,0,1-.691-2.049c-.031-.164-.057-.328-.086-.49s-.053-.322-.082-.482c-.018-.1-.037-.2-.057-.3l-.012-.064c-.016-.078-.033-.158-.051-.236l-.012-.055c-.018-.082-.037-.164-.057-.246l-.012-.043c-.021-.086-.043-.172-.066-.258a.161.161,0,0,1,0-.031c-.025-.09-.051-.18-.078-.271v-.018c-.029-.094-.057-.186-.088-.279h0c-.031-.094-.064-.191-.1-.285h0c-.037-.1-.072-.193-.111-.287h0a7.575,7.575,0,0,0-1.037-1.844,4.895,4.895,0,0,0-3.894-2.013,7.716,7.716,0,0,0-2.343.594L796,402.88l.551-.254a4.715,4.715,0,0,0-1.678.359,1.63,1.63,0,0,0-.973,1.334c-.01.338.123.674.08,1.01-.072.555-.582.932-.846,1.424a1.832,1.832,0,0,0-.2.963v.131a.174.174,0,0,0,0,.033v.066c-.82-.357-1.64-.728-2.459-1.125a8.7,8.7,0,0,1-3.57-2.711c-.271-.41-.48-.853-.748-1.258a9.969,9.969,0,0,0-1.025-1.23l-2.515-2.722c-.193.363.055.791.25,1.152a4.946,4.946,0,0,1,.465,1.2.571.571,0,0,1-.012.42.821.821,0,0,1-.344.244,1.23,1.23,0,0,0-.519,1.408,1.558,1.558,0,0,0,1.162,1.012,2.107,2.107,0,0,1,.518.127c.3.15.447.5.664.758a2.98,2.98,0,0,0,1.625.81c.93,1.074,1.9,2.1,2.828,3.177a20.362,20.362,0,0,0,4.685,4.378c.191.115.385.221.582.32a.322.322,0,0,1-.01.1,1.111,1.111,0,0,0,.088.717,1.127,1.127,0,0,0,.8.391l1.39.248a4.768,4.768,0,0,1-.068.537c-.018.109-.041.215-.062.324h0l-.025.139v.02a.407.407,0,0,1-.014.113c-.014.039,0,.027,0,.039v.273a2.611,2.611,0,0,0,.773,1.412l.195.236a3.28,3.28,0,0,0-.633,1.328,4.5,4.5,0,0,0-.09.924,1.606,1.606,0,0,0-.41.639,2.923,2.923,0,0,0-.107,1.035v.41a3.443,3.443,0,0,0,.238,1.435c.019.037.039.07.057.1a19.924,19.924,0,0,1-1.187,1.64,3.558,3.558,0,0,0,.326,4.074c.281.324.641.635.674,1.066a4,4,0,0,1-.057.582,4.35,4.35,0,0,0,.3,1.351,1.4,1.4,0,0,1-.113,1.119,1.639,1.639,0,0,0-.281,1.074,7.178,7.178,0,0,1-.176,1.748c-.018.252,0,.508-.023.76a4.289,4.289,0,0,1-.15.713.292.292,0,0,1-.021.078c-.506.223-1.008.455-1.492.723a1.309,1.309,0,0,0-.615.566,1.45,1.45,0,0,0-.033.779l.437,3.037-.076-.033q.051.746.107,1.5a2.021,2.021,0,0,0,.287,1.084,2.826,2.826,0,0,1,.31.4c.172.348-.033.754-.185,1.111s-.2.863.129,1.055a2.724,2.724,0,0,0,.559.3,11.694,11.694,0,0,0,.348,5.216q.437,1.967.875,3.931a9.549,9.549,0,0,1,.193,1.689v.246a9.46,9.46,0,0,0,.41,2.3c.455,1.533.018,3.373.162,5.044a14.965,14.965,0,0,0,.48,2.375,73.181,73.181,0,0,1,2.213,11.813,2.967,2.967,0,0,0,1.418.99c-.041.5.014,1.064,0,1.353a2.334,2.334,0,0,1-.111.7,1.694,1.694,0,0,1-1.072.912c-.144.049-.289.088-.437.123l.164-.139a3.661,3.661,0,0,0-2.728.48,1.08,1.08,0,0,0-.539.635,1.025,1.025,0,0,0,.189.736,3.355,3.355,0,0,0,1.9,1.346,9.944,9.944,0,0,0,2.336.326l1.447.084a.4.4,0,0,0,.094.514,1.012,1.012,0,0,0,.531.193,6.758,6.758,0,0,0,1.785.027.7.7,0,0,0,.41-.148.264.264,0,0,0,0-.391.432.432,0,0,0,.393-.287,1.162,1.162,0,0,0,.053-.518,5.566,5.566,0,0,0-.449-2.255.572.572,0,0,0-.633-.279,24.6,24.6,0,0,1-.41-3.636,8.878,8.878,0,0,0,1.053-.475,8.138,8.138,0,0,1-.717-5.579,16.882,16.882,0,0,0,.268-1.806A5.987,5.987,0,0,0,804.2,471a12.8,12.8,0,0,1,3.2,2.894c1.416,1.844,2.279,4.078,4.015,5.615q.342-.334.693-.664.549.93,1.039,1.9a7.23,7.23,0,0,1,.6,1.5,6.928,6.928,0,0,1,.055,2.416q-.072.639-.174,1.273a3.468,3.468,0,0,1-.125.533.368.368,0,0,0-.039-.16c-.109-.191-.41-.1-.574.027a2.535,2.535,0,0,0-.707.82.883.883,0,0,0-.127.523.772.772,0,0,0,.41.512,4.274,4.274,0,0,0,3.171-.527c.41-.3.633-.781,1.041-1.068a6.052,6.052,0,0,0,.629-.4c.379-.346.41-.93.687-1.369.459-.756,1.486-.951,1.887-1.752A2.235,2.235,0,0,0,819.1,480.488Z" transform="translate(-629.394 -328.758)"/><path class="i" d="M862.327,805.775a2.288,2.288,0,0,1-.113.7,1.684,1.684,0,0,1-1.07.9c-.455.158-.939.205-1.4.342a1.232,1.232,0,0,0-.547.283.993.993,0,0,0,.316,1.453,2.722,2.722,0,0,0,1.66.256,21.853,21.853,0,0,0,3.591-.51c.426-.1.924-.3.992-.73a1.2,1.2,0,0,0-.033-.41,24.225,24.225,0,0,1-.461-4.453,9.256,9.256,0,0,0-2.6-.018C862.165,803.91,862.353,805.271,862.327,805.775Z" transform="translate(-690.289 -650.438)"/><path class="i" d="M925.235,781.012q.59.978,1.109,1.994a7.058,7.058,0,0,1,.6,1.478,6.788,6.788,0,0,1,.055,2.383q-.072.629-.176,1.256a1.587,1.587,0,0,1-.527,1.111,1.213,1.213,0,0,0,1.045.092,3.01,3.01,0,0,0,.92-.564,8.123,8.123,0,0,0,3.14-5.831.925.925,0,0,0-.1-.516,1.025,1.025,0,0,0-.307-.275,23.618,23.618,0,0,1-3.634-3.052.445.445,0,0,0-.266-.17.46.46,0,0,0-.238.068c-.674.338-1.8.82-2.082,1.588A1.073,1.073,0,0,1,925.235,781.012Z" transform="translate(-742.598 -630.896)"/><path class="d" d="M859.442,822.8a18.242,18.242,0,0,1-4.671,1.047.638.638,0,0,1-.559-.1.426.426,0,0,1-.037-.48,1.25,1.25,0,0,1,.342-.377l1.06-.887a3.689,3.689,0,0,0-2.693.463,1.072,1.072,0,0,0-.537.615,1,1,0,0,0,.189.728,3.349,3.349,0,0,0,1.894,1.328,10.122,10.122,0,0,0,2.334.322l1.435.082a.387.387,0,0,0,.1.508,1.025,1.025,0,0,0,.533.195,6.838,6.838,0,0,0,1.783.025.683.683,0,0,0,.41-.146.258.258,0,0,0,0-.385.433.433,0,0,0,.393-.285,1.187,1.187,0,0,0,.053-.51,5.368,5.368,0,0,0-.449-2.22C860.667,822.138,859.938,822.593,859.442,822.8Z" transform="translate(-685.002 -665.081)"/><path class="d" d="M934.083,794.208a6.6,6.6,0,0,0-1.521-.842.18.18,0,0,0-.275.07,15.6,15.6,0,0,0-2.24,4.318,7.507,7.507,0,0,1-1.119,2.533c-.078.094-.2.191-.312.135-.154-.078-.059-.326-.146-.476-.107-.188-.4-.1-.572.027a2.461,2.461,0,0,0-.705.82.82.82,0,0,0-.127.514.758.758,0,0,0,.4.5,2.957,2.957,0,0,0,2.529-.2,2.889,2.889,0,0,0,.637-.318c.41-.289.633-.771,1.041-1.051a5.976,5.976,0,0,0,.629-.393c.377-.342.41-.918.684-1.353.459-.744,1.486-.937,1.888-1.728A2.227,2.227,0,0,0,934.083,794.208Z" transform="translate(-744.414 -642.351)"/><path class="d" d="M853.153,593.805a6.393,6.393,0,0,1,2.215,5.372,18.95,18.95,0,0,1-1.48,5.831q-1.506,4.052-3.009,8.1a3.339,3.339,0,0,1,.2.922,1.133,1.133,0,0,1-.2.906c-.094.109-.2.193-.307.3a1.6,1.6,0,0,0-.266,1.256,3.639,3.639,0,0,1,.035,1.314c-.047.182-.133.354-.166.539a.535.535,0,0,0,.15.516c.2.164.615.111.674.369a30.631,30.631,0,0,1,6.825,8.4c.664,1.195,1.334,2.519,2.574,3.1a44.91,44.91,0,0,0-3.47,3.052c-1.732-1.517-2.595-3.724-4.009-5.533a12.709,12.709,0,0,0-3.193-2.855,5.841,5.841,0,0,1,.785,3.529,16.387,16.387,0,0,1-.268,1.781,7.884,7.884,0,0,0,.717,5.5,6.023,6.023,0,0,1-3.507.805,2.983,2.983,0,0,1-1.91-1.09,72.079,72.079,0,0,0-2.211-11.655,14.317,14.317,0,0,1-.478-2.359c-.143-1.64.293-3.464-.164-4.976a9.279,9.279,0,0,1-.41-2.267v-.244a9.3,9.3,0,0,0-.193-1.664l-.873-3.878a11.37,11.37,0,0,1-.35-5.148,2.736,2.736,0,0,1-.557-.293c-.334-.191-.281-.689-.129-1.041s.355-.752.185-1.1a2.685,2.685,0,0,0-.31-.391,1.969,1.969,0,0,1-.287-1.068l-.107-1.48a2.9,2.9,0,0,1,1.459,1.277c-.807-1.25-.41-3.033.187-4.4a2,2,0,0,1,1.881-1.49C846.472,593.19,850.485,591.8,853.153,593.805Z" transform="translate(-674.922 -482.886)"/><path class="e" d="M889.872,638.93s-1.615,1.078-1.615,1.885-.41,8.075-.41,8.075v5.124a13.8,13.8,0,0,1,0,3.365,21.616,21.616,0,0,0,0,4.173c0,.4.41-4.173.41-4.173v-4.853l.41-11.038Z" transform="translate(-713.139 -519.596)"/><path class="i" d="M797.153,415.543l-.941-.367c-1.922-.771-3.847-1.543-5.708-2.447a8.726,8.726,0,0,1-3.566-2.674c-.271-.41-.48-.84-.748-1.244a9.915,9.915,0,0,0-1.025-1.215l-2.513-2.685c-.193.359.053.781.25,1.135a4.92,4.92,0,0,1,.465,1.187.55.55,0,0,1-.014.41.8.8,0,0,1-.342.242,1.2,1.2,0,0,0-.518,1.387,1.547,1.547,0,0,0,1.16,1,2.2,2.2,0,0,1,.518.125c.3.15.447.492.664.748a2.983,2.983,0,0,0,1.623.8c.93,1.06,1.9,2.074,2.826,3.134a20.268,20.268,0,0,0,4.681,4.32,6.857,6.857,0,0,0,2.113.848A34.237,34.237,0,0,1,797.153,415.543Z" transform="translate(-629.427 -333.537)"/><path class="j" d="M797.153,415.543l-.941-.367c-1.922-.771-3.847-1.543-5.708-2.447a8.726,8.726,0,0,1-3.566-2.674c-.271-.41-.48-.84-.748-1.244a9.915,9.915,0,0,0-1.025-1.215l-2.513-2.685c-.193.359.053.781.25,1.135a4.92,4.92,0,0,1,.465,1.187.55.55,0,0,1-.014.41.8.8,0,0,1-.342.242,1.2,1.2,0,0,0-.518,1.387,1.547,1.547,0,0,0,1.16,1,2.2,2.2,0,0,1,.518.125c.3.15.447.492.664.748a2.983,2.983,0,0,0,1.623.8c.93,1.06,1.9,2.074,2.826,3.134a20.268,20.268,0,0,0,4.681,4.32,6.857,6.857,0,0,0,2.113.848A34.237,34.237,0,0,1,797.153,415.543Z" transform="translate(-629.427 -333.537)"/><path class="b" d="M842.288,461.092a1.129,1.129,0,0,1-.8-.385A1.081,1.081,0,0,1,841.4,460a19.831,19.831,0,0,1,1.025-4.529,4.9,4.9,0,0,0,2.209,1.785A16.393,16.393,0,0,0,847,458.337c-.2-.066-.707,3.086-.99,3.279-.357.25-1.217-.088-1.613-.156Z" transform="translate(-676.283 -373.734)"/><circle class="i" cx="4.308" cy="4.308" r="4.308" transform="translate(163.879 77.811)"/><path class="k" d="M852.22,463.18s2.826,2.422,1.615,4.037-1.885,2.693-.271,2.828,7-2.693,7-2.693-4.98-4.037-4.173-6.46S852.22,463.18,852.22,463.18Z" transform="translate(-684.908 -377.495)"/><path class="b" d="M848.1,481.486a3.342,3.342,0,0,0-2.474,2.488c-.318,1.451.357,3.074-.279,4.41a17.535,17.535,0,0,1-1.23,1.707,3.484,3.484,0,0,0,.324,4.019c.281.32.642.629.674,1.051a3.85,3.85,0,0,1-.057.574,4.257,4.257,0,0,0,.3,1.334,1.358,1.358,0,0,1-.113,1.1,1.6,1.6,0,0,0-.279,1.06,7.088,7.088,0,0,1-.178,1.726c-.018.25,0,.5-.022.75a4.377,4.377,0,0,1-.148.7l-.361,1.33a14.783,14.783,0,0,0,6.148,1.1,30.136,30.136,0,0,0,5.613-.82c.564-.119,1.127-.238,1.683-.391-1.172-1.533-1.3-3.564-1.33-5.493a82,82,0,0,0-.719-9.612,12.359,12.359,0,0,0,1.053-3.457,5.845,5.845,0,0,0,.131-1.461,7.776,7.776,0,0,0-.99-2.927,3.789,3.789,0,0,0-1.82-2.109,1.447,1.447,0,0,0-1.4.154c-.711.537-.5,1.463-.682,2.254a3.026,3.026,0,0,1-2.191,2.049,7.122,7.122,0,0,1-2.3.215.41.41,0,0,1-.291-.672C847.487,482.205,847.819,481.834,848.1,481.486Z" transform="translate(-678.079 -392.009)"/><path class="i" d="M846.761,574.49a28.041,28.041,0,0,1-5.048,3.541c-1.08.541-2.228.941-3.279,1.523a1.31,1.31,0,0,0-.615.557,1.377,1.377,0,0,0-.033.768l.467,3.222c.129.873.967,1.435,1.64,1.992a1.179,1.179,0,0,1,.043-.781,2.626,2.626,0,0,1,.158-.236,2.212,2.212,0,0,0,.227-1.514,8.4,8.4,0,0,1-.178-1.554.508.508,0,0,1,.217-.451c2.289-1.1,4.755-1.945,7.068-2.99a7.491,7.491,0,0,0,1.715-.974,2.639,2.639,0,0,0,1-1.654.324.324,0,0,0-.041-.252.342.342,0,0,0-.174-.1C848.888,575.209,847.794,574.863,846.761,574.49Z" transform="translate(-673.401 -468.362)"/><path class="e" d="M852.336,508.488a2.317,2.317,0,0,0-1.892,1.3,2.893,2.893,0,0,0-.107,1.025,3.332,3.332,0,0,0,.24,1.42,4,4,0,0,0,.479.7c1.894,2.427,2.845,5.474,4.689,7.94.164.217.463.5.371.756a1.858,1.858,0,0,0-.088.2.41.41,0,0,0,.135.359.874.874,0,0,1,.223.326c.035.129-.051.3-.184.287a2.741,2.741,0,0,0,1.543,1.408,6.426,6.426,0,0,0,3.445.846,7.859,7.859,0,0,0,.41-2.82,7.325,7.325,0,0,0-.687-2l-.8-1.75a26.061,26.061,0,0,0-2.322-4.337,6.555,6.555,0,0,1-.859-1.383c-.244-.633-.914-1.078-1.32-1.621a10.046,10.046,0,0,0-2.037-2.232A1.841,1.841,0,0,0,852.336,508.488Z" transform="translate(-683.405 -415.878)"/><path class="b" d="M852.337,506.518a2.319,2.319,0,0,0-1.892,1.3,2.909,2.909,0,0,0-.107,1.025,3.333,3.333,0,0,0,.24,1.42,4.008,4.008,0,0,0,.48.7c1.894,2.427,2.845,5.474,4.689,7.939.164.217.463.5.371.756a1.828,1.828,0,0,0-.088.2.41.41,0,0,0,.135.359.875.875,0,0,1,.223.326c.035.129-.051.3-.184.287a2.742,2.742,0,0,0,1.543,1.408,6.426,6.426,0,0,0,3.445.846,7.864,7.864,0,0,0,.41-2.82,7.319,7.319,0,0,0-.687-2l-.8-1.75a26.06,26.06,0,0,0-2.322-4.337,6.525,6.525,0,0,1-.859-1.385c-.244-.631-.914-1.076-1.32-1.619a10.048,10.048,0,0,0-2.037-2.232A1.849,1.849,0,0,0,852.337,506.518Z" transform="translate(-683.406 -414.312)"/><path class="d" d="M837.253,418.679a4.743,4.743,0,0,0-1.677.352,1.613,1.613,0,0,0-.973,1.316,7.816,7.816,0,0,1,.08,1c-.072.549-.582.92-.844,1.406a2.518,2.518,0,0,0,.492,2.664c.594.746,1.4,1.32,2.01,2.062a5.328,5.328,0,0,1,1.111,4.287,3.4,3.4,0,0,0-.109.9,2.574,2.574,0,0,0,.771,1.392,64.273,64.273,0,0,1,4.861,6.468,17.487,17.487,0,0,1,1.2,2.049,12.42,12.42,0,0,0,1.1,2.166,5.719,5.719,0,0,0,1.613,1.383,11.391,11.391,0,0,0,5.165,1.666l-1.055-2.617a3,3,0,0,1-.318-1.453c.117-.943,1.068-1.562,1.377-2.459a2.983,2.983,0,0,0-.055-1.8c-.373-1.326-1.119-2.519-1.521-3.837a7.787,7.787,0,0,1-.229-3.568,5.512,5.512,0,0,0,.166-1.578c-.195-1.6-2.074-2.369-2.943-3.728a8.053,8.053,0,0,1-.859-2.97,9.372,9.372,0,0,0-1.7-4.166,4.891,4.891,0,0,0-3.894-1.986,7.87,7.87,0,0,0-2.34.586l-1.976.719" transform="translate(-670.128 -343.637)"/><g class="l" transform="translate(163.508 77.79)"><path d="M893.871,436.818a9.482,9.482,0,0,0,.707,2.707c-.059-.32-.109-.641-.168-.957a11.934,11.934,0,0,0-.66-2.349C893.8,436.419,893.836,436.618,893.871,436.818Z" transform="translate(-881.435 -436.22)"/><path d="M911.661,475.417a7.827,7.827,0,0,0,.23,3.57,9.22,9.22,0,0,0,.336.922,7.8,7.8,0,0,1-.027-2.742,5.509,5.509,0,0,0,.166-1.578,2.459,2.459,0,0,0-.533-1.23C911.8,474.717,911.72,475.067,911.661,475.417Z" transform="translate(-895.589 -466.543)"/><path d="M915.969,519.8a9.9,9.9,0,0,0-.41-1.131,2.514,2.514,0,0,1-.078,1.185c-.31.9-1.262,1.517-1.377,2.459a2.983,2.983,0,0,0,.318,1.453c.07.174.139.35.205.525a1.684,1.684,0,0,1,0-.227c.117-.943,1.068-1.562,1.377-2.459A2.86,2.86,0,0,0,915.969,519.8Z" transform="translate(-897.608 -501.772)"/><path d="M860.74,500.5a5.738,5.738,0,0,1-1.613-1.385,12.371,12.371,0,0,1-1.1-2.166,17.294,17.294,0,0,0-1.2-2.049,64.386,64.386,0,0,0-4.859-6.47c-.064-.072-.125-.146-.187-.219a2.109,2.109,0,0,0-.047.578,2.573,2.573,0,0,0,.771,1.392,64.279,64.279,0,0,1,4.861,6.468,17.49,17.49,0,0,1,1.2,2.049,12.418,12.418,0,0,0,1.1,2.166,5.72,5.72,0,0,0,1.613,1.383,11.392,11.392,0,0,0,5.165,1.666l-.717-1.763a11.4,11.4,0,0,1-4.984-1.65Z" transform="translate(-848.029 -477.555)"/><path d="M835.824,448.4c-.615-.742-1.416-1.306-2.01-2.06-.053-.07-.1-.141-.156-.217a2.984,2.984,0,0,0,.695,1.965c.594.756,1.4,1.32,2.01,2.062a5.125,5.125,0,0,1,.615.935,5.328,5.328,0,0,0-1.154-2.685Z" transform="translate(-833.658 -444.091)"/></g><path class="m" d="M381.217,347.877l-1.486-1.494a.789.789,0,0,0-1.121,0l-9.331,9.245-3.947-3.976a.787.787,0,0,0-1.113,0l-1.5,1.486a.8.8,0,0,0,0,1.121l5.995,6.04a.8.8,0,0,0,1.119,0L381.217,349a.789.789,0,0,0,0-1.121Z" transform="translate(-295.542 -286.819)"/><path class="m" d="M582.217,347.877l-1.486-1.494a.789.789,0,0,0-1.121,0l-9.331,9.245-3.947-3.976a.787.787,0,0,0-1.113,0l-1.5,1.486a.8.8,0,0,0,0,1.121l5.995,6.04a.8.8,0,0,0,1.119,0L582.217,349a.789.789,0,0,0,0-1.121Z" transform="translate(-455.348 -286.819)"/></g></svg>