<svg xmlns="http://www.w3.org/2000/svg" width="231.79" height="161.257" viewBox="0 0 231.79 161.257"><defs><style>.a{fill:#3f3d56;}.b{fill:#098dcd;}.c{fill:#fff;}.d{fill:#e6e6e6;}.e{fill:#ccc;}.f{fill:#2f2e41;}.g{fill:#ffb8b8;}</style></defs><g transform="translate(0)"><path class="a" d="M421.588,264.575a5.964,5.964,0,0,0-.122,8.392l37.7,39.019a5.951,5.951,0,0,0,8.478.082l115.04-114.542a5.951,5.951,0,0,0-.951-9.2L536.5,158.86a5.916,5.916,0,0,0-7.405.729Z" transform="translate(-352.646 -156.269)"/><path class="b" d="M582.525,276.849a5.99,5.99,0,0,1-.789.971L466.967,394.526a5.95,5.95,0,0,1-8.478-.082L419.977,353.8a5.932,5.932,0,0,1-.7-.887c-1.477,2.272-.713,4.812,1.245,6.838l37.7,39.019a5.951,5.951,0,0,0,8.478.082l115.04-114.542a5.953,5.953,0,0,0,.789-7.463Z" transform="translate(-351.698 -243.055)"/><path class="c" d="M588.965,207.431l-4.682-2.985a4.46,4.46,0,0,1-6.42,5.856l-30.294-20.827a4.458,4.458,0,0,1,1.179-7.926l-2.412-1.538a1.623,1.623,0,0,0-2.027.228L442.4,280.391a1.623,1.623,0,0,0,.041,2.321l37.012,36.064a1.623,1.623,0,0,0,2.259-.031l107.529-108.8a1.623,1.623,0,0,0-.273-2.518Z" transform="translate(-368.79 -172.225)"/><path class="d" d="M379.147,133.239l31.263,29.477,74.362-73.469L447.033,64.683Z" transform="translate(-276.594 -47.187)"/><path class="a" d="M929.641,351.95a1.108,1.108,0,0,0,1.53,0l6.5-6.5a1.084,1.084,0,0,0,0-1.53,1.108,1.108,0,0,0-1.53,0l-6.5,6.5A1.084,1.084,0,0,0,929.641,351.95Z" transform="translate(-724.353 -291.759)"/><path class="a" d="M889.141,392.421a1.084,1.084,0,0,0,1.53,0l6.5-6.5a1.082,1.082,0,1,0-1.53-1.53l-6.5,6.5A1.084,1.084,0,0,0,889.141,392.421Z" transform="translate(-694.807 -321.275)"/><circle class="b" cx="7.303" cy="7.303" r="7.303" transform="translate(95.972 104.051)"/><path class="a" d="M224.393,582.5H69.113v-.59H224.5Z" transform="translate(-50.419 -424.51)"/><rect class="d" width="77.199" height="15.242" transform="translate(79.362 48.247)"/><rect class="d" width="77.199" height="15.242" transform="translate(79.362 24.163)"/><rect class="d" width="77.199" height="15.242" transform="translate(79.362)"/><path class="c" d="M471.018,169.944h73.907v-11.95H471.018Z" transform="translate(-390.011 -156.348)"/><path class="c" d="M471.018,259.473h73.907v-11.95H471.018Z" transform="translate(-390.011 -221.661)"/><path class="c" d="M471.018,348.316h73.907v-11.95H471.018Z" transform="translate(-390.011 -286.474)"/><circle class="b" cx="4.553" cy="4.553" r="4.553" transform="translate(82.925 2.969)"/><rect class="b" width="44.934" height="0.99" transform="translate(98.364 5.74)"/><rect class="b" width="44.934" height="0.99" transform="translate(98.364 8.314)"/><circle class="e" cx="4.553" cy="4.553" r="4.553" transform="translate(82.925 27.33)"/><rect class="e" width="44.934" height="0.99" transform="translate(98.364 30.101)"/><rect class="e" width="44.934" height="0.99" transform="translate(98.364 32.675)"/><circle class="e" cx="4.553" cy="4.553" r="4.553" transform="translate(82.925 51.414)"/><rect class="e" width="44.934" height="0.99" transform="translate(98.364 54.185)"/><rect class="e" width="44.934" height="0.99" transform="translate(98.364 56.758)"/><path class="f" d="M174.99,716.608l1.992.234a9.706,9.706,0,0,0,5.464,1.233,1.639,1.639,0,0,0,1.388-.851h0a1.624,1.624,0,0,0-1.059-2.355l-1.513-.352-3.652-3.571-2.2-3.987-3.2.367-.666,5.064h0A3.92,3.92,0,0,0,174.99,716.608Z" transform="translate(-171.527 -556.827)"/><path class="f" d="M290.851,707.433l1.952.459a9.707,9.707,0,0,0,5.288,1.847,1.639,1.639,0,0,0,1.476-.687h0a1.624,1.624,0,0,0-.784-2.461l-1.463-.523-3.221-3.964-1.734-4.212h-3.221l-1.239,4.955h0A3.92,3.92,0,0,0,290.851,707.433Z" transform="translate(-256.371 -550.214)"/><path class="f" d="M207.882,531.174l-3.642.56-5.744-29-9.946-16.951L176.5,535.1l-4.483.841c.5-27.769-1.951-62.729,3.642-66.962l24.375,2.8,10.647,28.578Z" transform="translate(-171.801 -383.214)"/><circle class="g" cx="8.405" cy="8.405" r="8.405" transform="translate(10.024 25.804)"/><path class="g" d="M24.63,148.429l10.086,1.681,2.522-8.966L29.953,138.9Z" transform="translate(-17.968 -101.332)"/><path class="b" d="M180.62,357.5l26.9,2.522c-2.156-7.5-4.132-14.969-2.522-22.414,2.045-6.646.071-10.6-5.323-13.729l-3.642-8.125-9.806-1.121h0a21.167,21.167,0,0,0-3,14C184.616,339.231,184.239,349.065,180.62,357.5Z" transform="translate(-178.161 -270.622)"/><path class="f" d="M204.243,242.773c2.871-.2,6.19-.253,6.605.5,2.973-.139,5.561.9,6.756,3.311a1.59,1.59,0,0,1-.993,2.227,16.506,16.506,0,0,1-5.484.8c-3.483,4.095-2.018,11.563,1.363,15.927l-3.055.626-5.8-8.073,1.829,8.886-7.055,1.154-2.461-11.293a17.167,17.167,0,0,1,.378-8.066,6.485,6.485,0,0,1,.3-.776A9.007,9.007,0,0,1,204.243,242.773Z" transform="translate(-189.118 -218.103)"/><path class="g" d="M224.439,405.958l-.186,6.5a3.547,3.547,0,0,0,3.192,3.63h0a3.546,3.546,0,0,0,3.777-4.454l-1.46-5.4-4.2-22.975.28-13.448-8.966-.28,1.681,15.129Z" transform="translate(-204.609 -310.671)"/><path class="b" d="M214.8,332.4a14.168,14.168,0,0,1,10.086,0l-.56-11.207a4.483,4.483,0,0,0-4.483-4.483h0a4.483,4.483,0,0,0-4.483,4.483Z" transform="translate(-203.098 -272.133)"/></g></svg>