<svg xmlns="http://www.w3.org/2000/svg" width="20.004" height="20.004" viewBox="0 0 20.004 20.004"><defs><style>.a{fill:none;}.b{fill:#5b5b5a;}</style></defs><path class="a" d="M0,0H20V20H0Z"/><path class="b" d="M13.668,4a6.668,6.668,0,1,0,6.668,6.668A6.666,6.666,0,0,0,13.668,4Zm0,11.669a5,5,0,1,1,5-5A5,5,0,0,1,13.668,15.669Z" transform="translate(-1.166 -0.666)"/><path class="b" d="M2.667,10.711A4.993,4.993,0,0,1,6,6V4.26a6.661,6.661,0,0,0,0,12.9V15.42A4.993,4.993,0,0,1,2.667,10.711Z" transform="translate(-0.167 -0.709)"/></svg>