<svg xmlns="http://www.w3.org/2000/svg" xmlns:xlink="http://www.w3.org/1999/xlink" width="231.547" height="202.978" viewBox="0 0 231.547 202.978"><defs><style>.a{fill:#3f3d56;}.b{fill:#fff;}.c{fill:#e6e8ec;}.d{fill:#098dcd;}.e{fill:url(#a);}.f{fill:#feb9b9;}.g{fill:#2f2e41;}.h{opacity:0.1;}.i{fill:#efefef;}</style><linearGradient id="a" x1="0.505" y1="1.007" x2="0.505" gradientUnits="objectBoundingBox"><stop offset="0" stop-color="gray" stop-opacity="0.251"/><stop offset="0.54" stop-color="gray" stop-opacity="0.122"/><stop offset="1" stop-color="gray" stop-opacity="0.102"/></linearGradient></defs><g transform="translate(-286.224 -122.601)"><g transform="translate(356.325 122.601)"><rect class="a" width="2.98" height="24.555" rx="1.49" transform="translate(98.066 45.953)"/><rect class="a" width="99.673" height="202.571" rx="8"/><path class="b" d="M544.172,199H532.738v1.375a6.517,6.517,0,0,1-6.521,6.517H489.856a6.517,6.517,0,0,1-6.521-6.517V199H472.63a7.916,7.916,0,0,0-7.916,7.916v176.2a7.916,7.916,0,0,0,7.916,7.916h71.542a7.916,7.916,0,0,0,7.916-7.916V206.93a7.916,7.916,0,0,0-7.916-7.93Z" transform="translate(-458.371 -193.724)"/><rect class="c" width="13.918" height="2.825" rx="1.412" transform="translate(40.222 6.05)"/><circle class="c" cx="1.604" cy="1.604" r="1.604" transform="translate(56.246 5.858)"/><circle class="b" cx="18.855" cy="18.855" r="18.855" transform="translate(31.59 84.917)"/><path class="d" d="M570.612,434.812a25.2,25.2,0,1,1-25.2-25.2A25.2,25.2,0,0,1,570.612,434.812ZM542.5,448.151l18.694-18.694a1.624,1.624,0,0,0,0-2.3l-2.3-2.283a1.621,1.621,0,0,0-2.3,0l-15.247,15.247-7.119-7.136a1.631,1.631,0,0,0-2.3,0l-2.3,2.314a1.631,1.631,0,0,0,0,2.3l10.57,10.566a1.624,1.624,0,0,0,2.3,0Z" transform="translate(-495.366 -333.672)"/></g><g transform="translate(290.156 149.198)"><rect class="a" width="1.502" height="7.267" rx="0.751" transform="translate(68.408 13.339)"/><rect class="a" width="1.693" height="12.647" rx="0.846" transform="translate(68.353 26.645)"/><rect class="a" width="1.611" height="12.756" rx="0.806" transform="translate(68.38 43.718)"/><path class="e" d="M377.46,474.88a.278.278,0,0,0,.33.042A1.167,1.167,0,0,1,377.46,474.88Z" transform="translate(-329.045 -397.431)"/><path class="f" d="M378.842,491l-.325,1.771-.251,1.355-.456,2.479-4.425,3.1s-.4-.341-1.057-.88a77.107,77.107,0,0,0-8.424-6.166,9.425,9.425,0,0,0-2.316-1.067Z" transform="translate(-317.97 -408.679)"/><path class="a" d="M367.325,484.107s5.16.886,5.462-1.318-2.656-3.394-5.163-3.543-17.553.886-17.553.886-2.654,3.54,6.931,4.132Z" transform="translate(-309.7 -400.468)"/><rect class="g" width="26.993" height="32.008" transform="translate(41.916 10.924)"/><rect class="h" width="26.993" height="32.008" transform="translate(41.916 11.069)"/><path class="f" d="M227.57,429.929a4.332,4.332,0,0,0-1.644,1.164c-2.72,2.693-6.617,9.014-6.617,9.014-4.982-5.934.531-10.622,2.881-12.233.571-.39.955-.6.955-.6Z" transform="translate(-217.289 -364.212)"/><path class="f" d="M384.667,288.22s1.328,9.292,5.9,11.5-5.9,6.348-5.9,6.348l-14.307-5.314s8.113-2.656,6.49-10.474Z" transform="translate(-324.091 -267.194)"/><path class="f" d="M327.078,473.16l-.324,1.765-.263,1.36-.456,2.479-4.425,3.1s-.4-.339-1.057-.876a76.778,76.778,0,0,0-8.429-6.166,9.368,9.368,0,0,0-2.316-1.067Z" transform="translate(-281.843 -396.232)"/><path class="g" d="M314.852,467.128s4.631.033,4.909-2.177-2.524-3.394-4.909-3.543-16.881.954-16.881.954-2.056,4.174,7.061,4.765Z" transform="translate(-273.444 -388.022)"/><path class="a" d="M379.265,501.9c-.2-.1-.405-.2-.6-.3l-.544-.686-7.137-9.05v.157c-.048,1.511-.562,13.488-4.57,14.594-4.277,1.179-9.437,1.475-11.789-6.49s-6.65-25.37-11.063-26.4l6.565-5.383s4.347,5.084,6.118,9.951c-.066-.3-3.068-14.328-.6-16.809h21.539s3.325,9.47,5.6,14.162c1.774,3.642,4.437,12.254,6.152,18.082A6.919,6.919,0,0,1,379.265,501.9Z" transform="translate(-305.39 -388.084)"/><path class="h" d="M404.213,422.56c-3.325,1.968-17.922,1.167-22.671.846l-1.294-.094c-.139,0,.021-.079.021-.079l.133-1.339,3.54-9,18.953-10.991a16.5,16.5,0,0,0-.48,4.957A115.1,115.1,0,0,0,404.213,422.56Z" transform="translate(-330.951 -346.518)"/><path class="i" d="M403.848,421.112c-3.325,1.968-17.922,1.167-22.671.846l-1.294-.091-.215-.018.236-.06,1.167-.3,2.506-10.029L402.53,400.47a16.5,16.5,0,0,0-.48,4.957A115.057,115.057,0,0,0,403.848,421.112Z" transform="translate(-330.586 -345.514)"/><path class="h" d="M402.5,405.421c-3.854.889-12.336,3.5-15.594,9.794-2.173,4.193-4,5.991-5.278,6.744l-1.294-.091a.745.745,0,0,0,.021-.079l1.167-.3,2.506-10.029,18.953-10.987A16.579,16.579,0,0,0,402.5,405.421Z" transform="translate(-331.053 -345.514)"/><path class="h" d="M234.456,427.29l4.425,2.654a4.331,4.331,0,0,0-1.644,1.164c-.369-1.076-2.683-2.578-3.736-3.219C234.072,427.5,234.456,427.29,234.456,427.29Z" transform="translate(-228.601 -364.227)"/><path class="h" d="M377.032,471.732a.263.263,0,0,1-.3-.042,1.049,1.049,0,0,0,.3.042Z" transform="translate(-328.535 -395.206)"/><path class="d" d="M286.9,272.259a8.77,8.77,0,0,1-6.786-2.509s-11.789,3.394-15.782,11.063S233.2,303.529,233.2,303.529s4.722,2.654,4.277,3.981l17.849-10.326s6.348-4.57,8.11-5.6,11.508-7.375,13.572,9.881,0,15.192,0,15.192,2.95,1.034,7.227-7.227,17.55-10.178,17.55-10.178l.737-8.7s2.633-5.767.6-8.161a5.139,5.139,0,0,1-1.182-2.5c-.336-2.21,0-5.891,4.7-8.95,7.227-4.722,10.029-8.554,10.029-8.554s.148-2.8-4.277-4.132-22.42-8.554-22.42-8.554l-.6,2.509,14.2,10.021s-7.079,5.743-12.7,5.6C290.874,267.833,291.917,272.11,286.9,272.259Z" transform="translate(-228.391 -240.318)"/><path class="h" d="M399.561,293.283a28.812,28.812,0,0,1-.816-3.6l-7.817,2.065a8.57,8.57,0,0,1-.178,4.51A8.406,8.406,0,0,0,399.561,293.283Z" transform="translate(-338.317 -268.213)"/><circle class="f" cx="8.406" cy="8.406" r="8.406" transform="translate(46.345 11.072)"/><path class="h" d="M428.67,507.07s4.867,9.588,3.391,12.535" transform="translate(-364.775 -419.892)"/><path class="g" d="M360.4,218.723c2.333.266,4.549,1.266,6.847,1.814a3.4,3.4,0,0,0,1.771.066c.892-.275,1.617-1.209,2.542-1.182a2.818,2.818,0,0,1,1.542.777,18.959,18.959,0,0,1,2.116,1.886c1.584,1.72,2.566,4.035,4.011,5.906s3.505,4.065,5.558,3.207a11.865,11.865,0,0,1-10.7,9.183c-1.974.136-4-.275-5.906.3a5.117,5.117,0,0,1-1.491.363c-1.1,0-1.986-1.01-2.672-1.992-1.608-2.309-2.881-4.93-4.691-7.037a3.858,3.858,0,0,0-2.149-1.487,3.98,3.98,0,0,0-2.376.668,11.149,11.149,0,0,0-3.476,2.418,4.812,4.812,0,0,0-1.173,4.232,9.87,9.87,0,0,1,.713,2.37c.018,1.342-1.167,2.322-1.4,3.627a13.6,13.6,0,0,0-.057,1.65,6.768,6.768,0,0,1-2.493,4.38,3.144,3.144,0,0,0-1.143,1.581c-.094.462,0,.949-.06,1.418a2.572,2.572,0,0,1-2.361,1.9,6.81,6.81,0,0,1-3.543-.42,4.085,4.085,0,0,0,1.983-4.332c-.456-2.394-2.862-4.114-2.656-6.55a7.59,7.59,0,0,1,.665-2.155,19.744,19.744,0,0,0,1.137-4.084,6.88,6.88,0,0,0-.07-3.255A10.117,10.117,0,0,0,339.4,231.5a14.078,14.078,0,0,1-1.7-3.485,2.451,2.451,0,0,1-.163-1.155,2.382,2.382,0,0,1,.741-1.194c1.315-1.382,2.72-2.817,4.483-3.213a10.091,10.091,0,0,1,2.545-.1,30.037,30.037,0,0,0,4.422-.188c1.209-.142,3.252-.124,4.277-.907.955-.732,1.493-1.65,2.669-2.116a7.859,7.859,0,0,1,3.73-.426Z" transform="translate(-301.182 -218.66)"/></g><ellipse class="d" cx="12.194" cy="2.062" rx="12.194" ry="2.062" transform="translate(493.382 320.544)"/><path class="d" d="M891.17,828.248a3.551,3.551,0,0,0,1.162-1.756,1.565,1.565,0,0,0-.813-1.786,2.284,2.284,0,0,0-2.147.755,2.866,2.866,0,0,1-2.09,1.007,3.178,3.178,0,0,0,.987-2.975,1.253,1.253,0,0,0-.276-.607c-.412-.443-1.165-.255-1.659.1-1.577,1.107-2.017,3.252-2.026,5.176a9.736,9.736,0,0,1-.03-2.123,2.191,2.191,0,0,0-.8-1.889,2.407,2.407,0,0,0-1.213-.285,2.526,2.526,0,0,0-1.983.564,1.955,1.955,0,0,0,.079,2.426,7.726,7.726,0,0,0,2.053,1.644,4.549,4.549,0,0,1,1.463,1.4,1.261,1.261,0,0,1,.108.252h4.431a12.456,12.456,0,0,0,2.754-1.9Z" transform="translate(-380.551 -509.014)"/><ellipse class="i" cx="8.047" cy="1.361" rx="8.047" ry="1.361" transform="translate(331.736 322.857)"/><path class="i" d="M887.333,826.336a2.343,2.343,0,0,0,.766-1.159,1.033,1.033,0,0,0-.536-1.179c-.492-.188-1.019.154-1.417.5a1.892,1.892,0,0,1-1.379.665,2.1,2.1,0,0,0,.65-1.963.826.826,0,0,0-.182-.4c-.271-.292-.769-.168-1.095.064a4.082,4.082,0,0,0-1.337,3.416,6.433,6.433,0,0,1-.02-1.4,1.447,1.447,0,0,0-.529-1.247,1.588,1.588,0,0,0-.8-.188,1.667,1.667,0,0,0-1.309.372,1.29,1.29,0,0,0,.052,1.6,5.075,5.075,0,0,0,1.355,1.084,3,3,0,0,1,.967.921.833.833,0,0,1,.072.166h2.924a8.22,8.22,0,0,0,1.817-1.253Z" transform="translate(-544.221 -504.344)"/><ellipse class="i" cx="8.047" cy="1.361" rx="8.047" ry="1.361" transform="translate(286.224 322.857)"/><path class="i" d="M887.333,826.336a2.343,2.343,0,0,0,.766-1.159,1.033,1.033,0,0,0-.536-1.179c-.492-.188-1.019.154-1.417.5a1.892,1.892,0,0,1-1.379.665,2.1,2.1,0,0,0,.65-1.963.826.826,0,0,0-.182-.4c-.271-.292-.769-.168-1.095.064a4.082,4.082,0,0,0-1.337,3.416,6.433,6.433,0,0,1-.02-1.4,1.447,1.447,0,0,0-.529-1.247,1.588,1.588,0,0,0-.8-.188,1.667,1.667,0,0,0-1.309.372,1.29,1.29,0,0,0,.052,1.6,5.075,5.075,0,0,0,1.355,1.084,3,3,0,0,1,.967.921.833.833,0,0,1,.072.166h2.924a8.22,8.22,0,0,0,1.817-1.253Z" transform="translate(-589.733 -504.344)"/><path class="d" d="M793.111,156.854s-25.535-1.541-22.527,16.352a4.348,4.348,0,0,0,2.268,4.6s.045-1.325,2.62-.873a11.979,11.979,0,0,0,2.775.133,5.78,5.78,0,0,0,3.39-1.386h0s7.178-2.966,9.968-14.7c0,0,2.065-2.559,1.983-3.218l-4.309,1.841s1.474,3.109.3,5.691c0,0-.14-5.58-.968-5.459-.167.024-2.238,1.076-2.238,1.076s2.532,5.413.622,9.35c0,0,.725-6.672-1.413-8.959l-3.033,1.771s2.96,5.592.952,10.157c0,0,.515-7-1.592-9.726l-2.747,2.144s2.781,5.51,1.086,9.3c0,0-.221-8.146-1.68-8.761a16.9,16.9,0,0,0-2.772,2.99s1.9,4,.722,6.114c0,0-.725-5.428-1.319-5.459,0,0-2.4,3.6-2.645,6.065a13.069,13.069,0,0,1,2.065-6.4,7.225,7.225,0,0,0-3.669,1.9s.373-2.541,4.261-2.766c0,0,1.98-2.729,2.508-2.893,0,0-3.864-.325-6.208.716,0,0,2.062-2.4,6.918-1.307l2.714-2.217s-5.089-.695-7.248.073c0,0,2.484-2.123,7.979-.576l2.954-1.765a27.093,27.093,0,0,0-6.924-.607s2.729-1.471,7.791.124l2.123-.949s-3.178-.625-4.109-.725-.979-.355-.979-.355a11.024,11.024,0,0,1,5.971.664S793.187,157.136,793.111,156.854Z" transform="translate(-278.443 -20.56)"/><path class="a" d="M735.429,130.66s-11.524-.695-10.178,7.391a1.97,1.97,0,0,0,1.025,2.077s.021-.607,1.186-.4a5.311,5.311,0,0,0,1.252.061,2.6,2.6,0,0,0,1.531-.631h0s3.245-1.34,4.506-6.641c0,0,.931-1.155.894-1.453l-1.947.831a3.5,3.5,0,0,1,.143,2.572s-.064-2.52-.437-2.462c-.076,0-1.013.488-1.013.488s1.146,2.447.282,4.225c0,0,.327-3.015-.64-4.049l-1.371.813s1.337,2.526.431,4.589c0,0,.234-3.163-.719-4.394l-1.24.97s1.256,2.49.491,4.2c0,0-.1-3.682-.761-3.961a7.608,7.608,0,0,0-1.253,1.353s.861,1.82.328,2.763c0,0-.328-2.453-.607-2.466a8.171,8.171,0,0,0-1.195,2.729,5.92,5.92,0,0,1,.934-2.893,3.263,3.263,0,0,0-1.659.858s.17-1.149,1.926-1.249a8.3,8.3,0,0,1,1.134-1.31,7.1,7.1,0,0,0-2.805.325s.931-1.083,3.124-.591l1.213-1a10.423,10.423,0,0,0-3.277.031s1.122-.958,3.606-.261l1.335-.8a12.193,12.193,0,0,0-3.13-.271,4.807,4.807,0,0,1,3.521.054l.955-.428s-1.436-.282-1.859-.328-.443-.161-.443-.161a4.97,4.97,0,0,1,2.7.3A12.479,12.479,0,0,0,735.429,130.66Z" transform="translate(-255.748 -3.839)"/><path class="a" d="M735.429,130.66s-11.524-.695-10.178,7.391a1.97,1.97,0,0,0,1.025,2.077s.021-.607,1.186-.4a5.311,5.311,0,0,0,1.252.061,2.6,2.6,0,0,0,1.531-.631h0s3.245-1.34,4.506-6.641c0,0,.931-1.155.894-1.453l-1.947.831a3.5,3.5,0,0,1,.143,2.572s-.064-2.52-.437-2.462c-.076,0-1.013.488-1.013.488s1.146,2.447.282,4.225c0,0,.327-3.015-.64-4.049l-1.371.813s1.337,2.526.431,4.589c0,0,.234-3.163-.719-4.394l-1.24.97s1.256,2.49.491,4.2c0,0-.1-3.682-.761-3.961a7.608,7.608,0,0,0-1.253,1.353s.861,1.82.328,2.763c0,0-.328-2.453-.607-2.466a8.171,8.171,0,0,0-1.195,2.729,5.92,5.92,0,0,1,.934-2.893,3.263,3.263,0,0,0-1.659.858s.17-1.149,1.926-1.249a8.3,8.3,0,0,1,1.134-1.31,7.1,7.1,0,0,0-2.805.325s.931-1.083,3.124-.591l1.213-1a10.423,10.423,0,0,0-3.277.031s1.122-.958,3.606-.261l1.335-.8a12.193,12.193,0,0,0-3.13-.271,4.807,4.807,0,0,1,3.521.054l.955-.428s-1.436-.282-1.859-.328-.443-.161-.443-.161a4.97,4.97,0,0,1,2.7.3A12.479,12.479,0,0,0,735.429,130.66Z" transform="translate(-433.463 119.591)"/></g></svg>